<svg id="Layer_1" data-name="Layer 1" xmlns="http://www.w3.org/2000/svg" viewBox="0 0 256 256"><defs><style>.cls-1{fill:#fff;}</style></defs><path class="cls-1" d="M60,83v83h5.8c24.7,0,44.2,14,52.4,37.5l2.8,8-.3-78c-.3-76.7-.4-78.1-2.5-85.9-6.9-24.8-23.1-41.5-45-46.1A66.43,66.43,0,0,0,63.3,0H60Z" transform="translate(0 0)"/><path class="cls-1" d="M30,120.5V211H56.5c27,0,36.7,1,45.3,4.5,3.2,1.4,3.2,1.4,3.2-1.5,0-4.6-3.8-13.6-8-18.8C88.7,184.6,78.9,181,58.3,181H45V30H30Z" transform="translate(0 0)"/><path class="cls-1" d="M166.3,46a99.71,99.71,0,0,0-25.5,8.1L135,57v84c0,46.2.2,84,.6,84a64.74,64.74,0,0,0,7.1-4c13.9-8.4,23.2-10,57.6-10H226V45l-27.2.1C183.8,45.2,169.2,45.6,166.3,46Z" transform="translate(0 0)"/><path class="cls-1" d="M0,150.5v90.4l43.3.3c42.8.3,43.3.3,48.9,2.7a61.33,61.33,0,0,1,11.8,7.2l6,4.9h36.1l4.7-3.9c5.6-4.7,13.1-8.6,19.2-10,2.7-.6,21-1.1,45.3-1.1H256V75H241V226H207.6c-18.3,0-35.5.4-38.2.9a63.74,63.74,0,0,0-23.1,9.7l-6.6,4.4H116.3l-6.6-4.4a63.74,63.74,0,0,0-23.1-9.7c-2.7-.5-19.9-.9-38.2-.9H15V60H0Z" transform="translate(0 0)"/></svg>