<?xml version="1.0" standalone="no"?>
<!DOCTYPE svg PUBLIC "-//W3C//DTD SVG 20010904//EN"
 "http://www.w3.org/TR/2001/REC-SVG-20010904/DTD/svg10.dtd">
<svg version="1.0" xmlns="http://www.w3.org/2000/svg"
 width="256.000000pt" height="256.000000pt" viewBox="0 0 256.000000 256.000000"
 preserveAspectRatio="xMidYMid meet">

<g transform="translate(0.000000,256.000000) scale(0.100000,-0.100000)"
fill="#000000" stroke="none">
<path d="M600 1730 l0 -830 58 0 c247 0 442 -140 524 -375 l28 -80 -3 780 c-3
767 -4 781 -25 859 -69 248 -231 415 -450 461 -37 8 -82 15 -99 15 l-33 0 0
-830z"/>
<path d="M300 1355 l0 -905 265 0 c270 0 367 -10 453 -45 32 -14 32 -14 32 15
0 46 -38 136 -80 188 -83 106 -181 142 -387 142 l-133 0 0 755 0 755 -75 0
-75 0 0 -905z"/>
<path d="M1663 2100 c-74 -11 -188 -47 -255 -81 l-58 -29 0 -840 c0 -462 2
-840 6 -840 3 0 35 18 71 40 139 84 232 100 576 100 l257 0 0 830 0 830 -272
-1 c-150 -1 -296 -5 -325 -9z"/>
<path d="M0 1055 l0 -904 433 -3 c428 -3 433 -3 489 -27 31 -13 84 -45 118
-72 l60 -49 181 0 180 0 47 39 c56 47 131 86 192 100 27 6 210 11 453 11 l407
0 0 830 0 830 -75 0 -75 0 0 -755 0 -755 -334 0 c-183 0 -355 -4 -382 -9 -78
-15 -160 -49 -231 -97 l-66 -44 -117 0 -117 0 -66 44 c-71 48 -153 82 -231 97
-27 5 -199 9 -382 9 l-334 0 0 830 0 830 -75 0 -75 0 0 -905z"/>
</g>
</svg>
